<?xml version="1.0" standalone="no"?>
<!DOCTYPE svg PUBLIC "-//W3C//DTD SVG 20010904//EN"
 "http://www.w3.org/TR/2001/REC-SVG-20010904/DTD/svg10.dtd">
<svg version="1.0" xmlns="http://www.w3.org/2000/svg"
 width="700.000000pt" height="700.000000pt" viewBox="0 0 700.000000 700.000000"
 preserveAspectRatio="xMidYMid meet">
<metadata>
Created by potrace 1.14, written by Peter Selinger 2001-2017
</metadata>
<g transform="translate(0.000000,700.000000) scale(0.100000,-0.100000)"
fill="#000000" stroke="none">
<path d="M1605 5553 c-75 -17 -143 -54 -197 -105 -110 -106 -131 -167 -133
-401 -1 -98 -5 -180 -9 -184 -3 -4 -84 -7 -179 -8 -150 -2 -180 -5 -237 -24
-105 -37 -191 -114 -239 -216 -39 -82 -43 -117 -43 -357 l0 -208 -91 0 c-129
-1 -162 -7 -243 -46 -76 -36 -149 -105 -184 -173 -42 -84 -49 -133 -49 -354 0
-117 4 -231 9 -254 24 -104 99 -210 187 -266 68 -43 130 -59 248 -62 61 -2
113 -4 116 -4 3 -1 6 -117 6 -259 1 -273 6 -310 53 -402 30 -58 114 -141 173
-169 82 -40 139 -49 309 -51 89 0 163 -2 165 -3 1 -1 3 -43 3 -92 3 -166 36
-257 123 -347 60 -63 130 -102 213 -121 91 -20 441 -16 519 7 141 42 246 148
289 294 8 29 15 54 16 57 0 3 0 262 0 575 l0 570 1070 0 1070 0 0 -573 c0
-614 0 -620 52 -720 43 -85 136 -163 236 -199 50 -18 84 -20 267 -22 223 -2
290 6 368 45 64 32 121 83 160 141 60 91 70 134 73 318 1 91 3 174 3 185 1 19
8 20 174 21 198 0 252 12 340 71 96 65 163 167 183 275 3 18 6 127 6 241 0
144 4 210 12 212 6 2 63 6 127 8 99 3 124 8 174 31 119 54 202 150 236 272 15
54 18 103 18 273 0 139 -4 224 -13 257 -28 106 -97 203 -183 257 -68 43 -130
59 -248 62 -60 2 -113 4 -116 4 -4 1 -7 118 -7 261 0 294 -6 326 -71 427 -47
72 -126 135 -207 165 -49 18 -86 22 -224 25 -91 2 -173 5 -183 6 -16 2 -19 15
-21 117 -5 163 -35 242 -129 334 -51 49 -144 100 -207 112 -64 12 -417 10
-481 -3 -157 -32 -280 -146 -322 -299 -15 -53 -17 -127 -17 -602 0 -509 -1
-542 -17 -543 -75 -3 -2114 -1 -2118 3 -3 2 -5 248 -5 545 -1 579 -1 587 -52
687 -47 91 -173 187 -278 211 -59 14 -433 12 -495 -2z m482 -256 c18 -9 45
-34 60 -54 l28 -36 0 -1707 0 -1707 -28 -36 c-51 -67 -67 -71 -298 -72 l-205
0 -42 27 c-85 56 -77 -118 -79 1778 -2 1680 -2 1685 18 1727 22 46 62 80 107
92 15 4 113 7 217 6 158 -1 195 -4 222 -18z m3311 -10 c23 -15 49 -42 59 -59
17 -31 18 -124 20 -1718 2 -1620 1 -1687 -17 -1727 -11 -26 -34 -52 -60 -69
l-42 -28 -192 -2 c-105 0 -205 3 -223 8 -43 12 -87 50 -107 93 -16 33 -17 161
-17 1713 0 1223 3 1685 11 1707 16 41 48 74 92 95 31 14 69 16 236 15 l199 -1
41 -27z m709 -579 c22 -14 48 -43 59 -65 17 -36 18 -84 18 -1078 0 -991 -1
-1042 -18 -1075 -44 -81 -91 -98 -284 -98 l-152 -1 -1 27 c0 35 0 2304 0 2315
1 5 77 7 169 5 163 -3 170 -4 209 -30z m-4836 -110 c1 -13 0 -2258 0 -2310
l-1 -28 -155 0 c-118 0 -164 4 -194 16 -41 16 -82 60 -96 104 -5 14 -9 488 -9
1054 -1 960 0 1033 16 1069 20 43 56 76 102 93 46 17 336 18 337 2z m3299
-1069 l0 -329 -47 -1 c-52 0 -2047 0 -2075 1 -17 0 -18 23 -18 330 l0 331
1070 -2 1070 -1 0 -329z m2104 301 c68 -46 76 -79 76 -304 0 -221 -7 -251 -72
-298 -30 -21 -44 -23 -138 -23 l-105 0 -2 315 c-1 173 0 320 2 326 2 7 37 11
103 10 88 -2 104 -5 136 -26z m-6107 -355 c0 -288 -2 -325 -16 -329 -9 -3 -55
-4 -103 -2 -102 3 -146 25 -178 92 -18 36 -20 61 -20 238 0 175 2 201 19 235
38 73 72 89 197 90 l101 1 0 -325z"/>
</g>
</svg>
